<svg viewBox="0 0 1024 1024" xmlns="http://www.w3.org/2000/svg">
  <!-- Black circular background -->
  <circle cx="512" cy="512" r="512" fill="black"/>

  <!-- Milkie ghost character (simplified for favicon - no eyes/mouth for better visibility at small sizes) -->
  <path fill="white" stroke="black" stroke-width="40" stroke-linecap="round" stroke-linejoin="round" d="M 541.5,102.5 C 567.807,99.7919 592.14,105.292 614.5,119C 638.753,137.76 646.586,161.927 638,191.5C 634.242,201.782 629.909,211.782 625,221.5C 624.732,233.467 629.232,243.3 638.5,251C 667.827,266.321 692.994,286.821 714,312.5C 730.507,334.516 742.507,358.849 750,385.5C 755.237,409.731 759.903,434.064 764,458.5C 767.646,475.633 775.813,490.133 788.5,502C 794.846,506.174 801.512,509.841 808.5,513C 826.037,519.734 843.703,526.067 861.5,532C 886.759,551.391 890.926,574.557 874,601.5C 861.025,616.15 844.692,623.15 825,622.5C 803.771,622.089 784.105,616.422 766,605.5C 769.168,628.525 772.835,651.525 777,674.5C 779.609,714.777 764.442,746.277 731.5,769C 710.712,781.06 688.379,785.393 664.5,782C 657.729,780.806 651.062,779.306 644.5,777.5C 644.334,784.175 644.5,790.842 645,797.5C 663.93,811.962 668.263,829.962 658,851.5C 645.424,868.367 628.591,875.534 607.5,873C 572.066,867.898 551.566,847.732 546,812.5C 545.002,803.191 544.502,793.858 544.5,784.5C 517.504,792.473 490.504,792.473 463.5,784.5C 464.527,813.953 454.193,838.453 432.5,858C 414.257,870.376 394.257,874.376 372.5,870C 342.829,859.824 332.329,839.657 341,809.5C 344.69,801.79 350.023,795.456 357,790.5C 357.5,779.172 357.667,767.838 357.5,756.5C 329.456,760.72 303.79,754.887 280.5,739C 259.397,721.965 247.897,699.798 246,672.5C 245.985,650.245 248.485,628.245 253.5,606.5C 253.167,605.833 252.833,605.167 252.5,604.5C 232.235,616.9 210.235,622.4 186.5,621C 159.764,616.597 143.931,601.097 139,574.5C 138.086,556.158 144.919,541.325 159.5,530C 172.094,522.464 185.427,516.464 199.5,512C 225.227,498.593 241.727,477.759 249,449.5C 251.845,438.607 254.179,427.607 256,416.5C 258.525,391.555 260.192,366.555 261,341.5C 264.782,296.966 280.448,257.3 308,222.5C 323.217,205.938 340.717,192.438 360.5,182C 380.074,173.547 399.407,164.547 418.5,155C 440.387,142.222 462.721,130.222 485.5,119C 503.565,110.989 522.231,105.489 541.5,102.5 Z"/>
</svg>
